HIERARCHY
ROOT pelvis
{
  OFFSET 0 100 0
  CHANNELS 6 Xposition Yposition Zposition Zrotation Xrotation Yrotation
  JOINT pelvis_right_femur
  {
    OFFSET -10.78128 -3.44521 -0.5502486
    CHANNELS 3 Zrotation Xrotation Yrotation
    JOINT right_femur_tibia
    {
      OFFSET -0.8047443 -44.0398 -0.1307829
      CHANNELS 3 Zrotation Xrotation Yrotation
      JOINT right_tibia_foot
      {
        OFFSET 3.006224 -47.83518 -5
        CHANNELS 3 Zrotation Xrotation Yrotation
        End Site
        {
          OFFSET 0 -5 15
        }
      }
    }
  }
  JOINT pelvis_left_femur
  {
    OFFSET 10.78128 -3.44521 -0.5502486
    CHANNELS 3 Zrotation Xrotation Yrotation
    JOINT left_femur_tibia
    {
      OFFSET 0.8047443 -44.0398 -0.1307829
      CHANNELS 3 Zrotation Xrotation Yrotation
      JOINT left_tibia_foot
      {
        OFFSET -4.370144 -48.10324 -4.275266
        CHANNELS 3 Zrotation Xrotation Yrotation
        End Site
        {
          OFFSET 0 -5 15
        }
      }
    }
  }
  JOINT pelvis_spine1
  {
    OFFSET 0 6.468898 -3.129235
    CHANNELS 3 Zrotation Xrotation Yrotation
    JOINT spine1
    {
      OFFSET 0 23.15396 4.99043
      CHANNELS 3 Zrotation Xrotation Yrotation
      JOINT spine2
      {
        OFFSET 0 20.79997 -5.064912
        CHANNELS 3 Zrotation Xrotation Yrotation
        JOINT neck
        {
          OFFSET 0 14.38658 9.616178
          CHANNELS 3 Zrotation Xrotation Yrotation
          End Site
          {
            OFFSET 0 20 0
          }
        }
      }
      JOINT right_manubrium
      {
        OFFSET -5.722621 16.35077 3.967754
        CHANNELS 3 Zrotation Xrotation Yrotation
        JOINT right_clavicle
        {
          OFFSET -13.16364 1.694482 -4.693211
          CHANNELS 3 Zrotation Xrotation Yrotation
          JOINT right_humerus
          {
            OFFSET -28.5034 -0.3100689 -2.792744
            CHANNELS 3 Zrotation Xrotation Yrotation
            JOINT right_radius
            {
              OFFSET -25.15693 0.02248979 -1.271978
              CHANNELS 3 Zrotation Xrotation Yrotation
              End Site
              {
                OFFSET -15 0 0
              }
            }
          }
        }
      }
      JOINT left_manubrium
      {
        OFFSET 5.722621 16.35077 3.967754
        CHANNELS 3 Zrotation Xrotation Yrotation
        JOINT left_clavicle
        {
          OFFSET 13.16364 1.694482 -4.693211
          CHANNELS 3 Zrotation Xrotation Yrotation
          JOINT left_humerus
          {
            OFFSET 29.39168 -1.063119 -2.237045
            CHANNELS 3 Zrotation Xrotation Yrotation
            JOINT left_radius
            {
              OFFSET 24.59957 -0.9528479 0.9047498
              CHANNELS 3 Zrotation Xrotation Yrotation
              End Site
              {
                OFFSET 15 -0 -0
              }
            }
          }
        }
      }
    }
  }
}
MOTION
Frames: 13
Frame Time: 0.0416666666667
0 103.5113 0 1.298369 -1.805396 -0.1360895 3.044862 -12.47356 10.10153 -3.47959e-09 35.60589 3.54485e-09 -6.918137 -17.84646 -4.915869 -6.902371 7.618685 -22.66775 -1.140758e-09 5.269989 -1.46509e-09 8.913287 -16.90065 28.89526 -4.705221 -3.464033 4.536284 2.760061 9.390691 -8.016692 1.210837 22.52651 6.60159 3.156344 -23.35425 8.679408 6.661646 -19.86674 11.67547 84.85838 37.50583 -18.02148 -2.69443e-12 8.63204e-10 16.55309 -7.293232 9.028802 4.881127 5.446561 -19.46048 -1.102484 -95.44333 29.54161 23.69668 -7.391493e-10 5.93849e-10 -13.77829 2.895535 17.44721 10.10005
0.2476065 103.5522 1.116858 1.089355 -1.599637 -0.1363948 3.267041 -14.82942 9.855084 -3.177956e-09 38.2956 3.286271e-09 -6.560802 -16.88661 -4.824162 -6.882983 9.10912 -22.71905 -1.715883e-09 5.201055 -3.033923e-10 8.426923 -17.50553 27.73382 -4.455059 -3.317517 4.317308 2.721115 9.351328 -8.102897 1.177567 22.4492 6.745198 3.07291 -23.56872 8.91809 6.70156 -19.7245 11.67974 85.46068 37.10255 -18.60215 -1.602002e-10 6.600363e-10 16.56425 -7.123753 9.098748 4.753943 5.346555 -19.51252 -1.271374 -95.30465 29.65689 23.66297 -5.943472e-10 4.156851e-10 -14.30377 2.885344 17.34319 10.27769
0.5190016 103.6548 2.374496 0.8302908 -1.165671 0.01147011 3.621145 -17.43622 9.40467 -2.550831e-09 39.0637 2.687218e-09 -6.269998 -15.76767 -4.500898 -6.789826 10.39029 -22.59637 -2.102113e-09 5.175697 4.079829e-10 7.780795 -18.23868 26.42621 -4.119664 -3.142788 4.117135 2.710686 9.257097 -8.161007 1.142999 22.3202 6.919205 3.05116 -23.87934 9.139119 6.633684 -19.55895 11.67213 85.94181 36.61242 -19.16881 -2.739585e-10 3.959058e-10 16.44599 -7.088756 9.085893 4.693689 5.406459 -19.65957 -1.399151 -95.06983 29.61979 23.4729 -4.060921e-10 2.139952e-10 -15.10518 3.036236 17.25184 10.23012
0.803657 103.7377 3.866498 0.5306254 -0.4866452 0.2664953 4.091956 -20.24491 8.810924 -1.592911e-09 37.83649 1.75715e-09 -6.007488 -14.34485 -3.945383 -6.650444 11.49483 -22.31947 -2.143658e-09 5.286442 4.059311e-10 6.962814 -19.10785 25.06068 -3.722916 -2.960095 3.945849 2.738462 9.117914 -8.198138 1.11322 22.13724 7.144729 3.123013 -24.31146 9.351923 6.49131 -19.35238 11.65974 86.34534 36.09819 -19.77274 -3.052067e-10 8.342065e-11 16.16139 -7.245669 9.006447 4.718763 5.649809 -19.89729 -1.460249 -94.82132 29.42153 23.14321 -1.885131e-10 3.226311e-12 -16.15756 3.308647 17.14219 10.00042
1.086787 103.7025 5.622939 0.2508817 0.3333514 0.5704342 4.614184 -23.01023 8.152478 -5.634392e-10 34.63093 7.351637e-10 -5.761179 -12.75041 -3.19944 -6.521577 12.31365 -21.93517 -1.977516e-09 5.532652 -3.668299e-10 6.135725 -20.07193 23.87005 -3.328623 -2.781236 3.840795 2.792902 8.963735 -8.198914 1.094182 21.90905 7.402258 3.293967 -24.79516 9.52828 6.281173 -19.11449 11.64312 86.52532 35.58405 -20.34648 -2.755735e-10 -2.799748e-10 15.70449 -7.584379 8.823749 4.791248 6.074607 -20.21083 -1.466528 -94.46316 29.08837 22.6062 4.777754e-11 -2.141514e-10 -17.43619 3.690724 17.02404 9.57088
1.358131 103.4985 7.686659 -0.03229526 1.251534 0.8807167 5.150557 -25.59084 7.485784 4.356809e-10 30.20555 -2.510412e-10 -5.576069 -11.03621 -2.377237 -6.376545 12.93906 -21.45748 -1.486655e-09 5.938065 -1.690913e-09 5.25428 -20.99591 22.76148 -2.940698 -2.627053 3.764329 2.876155 8.791669 -8.187923 1.08188 21.63871 7.667494 3.523824 -25.29835 9.667107 6.049214 -18.83649 11.61489 86.54209 35.1398 -20.87841 -1.724255e-10 -6.271808e-10 15.11839 -8.030432 8.615182 4.910601 6.590038 -20.54378 -1.408608 -94.03713 28.66198 21.96615 2.673687e-10 -4.054428e-10 -18.7439 4.108018 16.87093 9.054758
1.606546 103.104 10.14261 -0.3497257 2.191862 1.170958 5.669484 -27.82352 6.831158 1.357946e-09 25.13548 -1.122456e-09 -5.512695 -9.3806 -1.649259 -6.143637 13.46902 -20.83185 -5.125901e-10 6.573913 -3.262661e-09 4.204486 -21.71923 21.58667 -2.552212 -2.507377 3.664083 2.993558 8.58615 -8.203927 1.077888 21.36287 7.896317 3.748831 -25.74819 9.759355 5.813212 -18.49791 11.56302 86.59303 34.80314 -21.39484 2.327542e-11 -8.627911e-10 14.4391 -8.550593 8.513253 5.099078 7.111867 -20.86981 -1.277183 -93.60736 28.16587 21.24747 4.262262e-10 -5.210937e-10 -19.9218 4.493261 16.65414 8.554091
1.830776 102.5799 13.05966 -0.7178305 3.017577 1.451844 6.125752 -29.54126 6.257006 2.163461e-09 20.91161 -1.826931e-09 -5.60164 -7.947407 -1.170783 -5.816289 14.00314 -20.11335 8.294318e-10 7.675528 -4.513364e-09 2.950039 -22.03055 20.20486 -2.159154 -2.417871 3.49827 3.123132 8.358767 -8.261399 1.075653 21.12748 8.049003 3.892905 -26.08363 9.811087 5.633207 -18.09665 11.49018 86.79585 34.609 -21.87149 2.718196e-10 -9.329311e-10 13.75415 -8.996258 8.591027 5.317961 7.477509 -21.10994 -1.102562 -93.23696 27.71006 20.60221 5.034952e-10 -5.429244e-10 -20.71784 4.757348 16.37841 8.222319
2.035246 102.0461 16.48479 -1.148603 3.643603 1.747369 6.507193 -30.54611 5.776822 2.841538e-09 18.28831 -2.359859e-09 -5.916221 -6.875526 -1.001746 -5.381671 14.49226 -19.30548 2.418003e-09 9.495844 -5.076466e-09 1.52984 -21.70876 18.5321 -1.748011 -2.364854 3.252992 3.252407 8.132365 -8.362753 1.060976 20.93339 8.085019 3.906972 -26.25844 9.790832 5.530824 -17.64589 11.39816 87.09264 34.57105 -22.23762 5.39749e-10 -8.073051e-10 13.10178 -9.243958 8.871044 5.530769 7.569904 -21.22573 -0.9183859 -92.8503 27.33049 20.12491 4.88628e-10 -4.605415e-10 -20.96586 4.893255 16.06274 8.091226
2.239472 101.6949 20.46284 -1.634337 4.003884 2.090675 6.794317 -30.58309 5.403405 3.412225e-09 18.05966 -2.766032e-09 -6.470883 -6.034002 -1.125574 -4.881381 14.77664 -18.40502 4.136062e-09 12.50653 -4.826995e-09 -0.002216726 -20.55636 16.56723 -1.316543 -2.351135 2.951877 3.35664 7.959964 -8.489278 1.018063 20.78363 8.0073 3.79241 -26.27795 9.683331 5.553747 -17.16146 11.31318 87.43893 34.72292 -22.44225 8.007704e-10 -4.932449e-10 12.49935 -9.293029 9.359599 5.740841 7.298054 -21.18305 -0.7522091 -92.46177 27.0307 19.96356 3.839212e-10 -2.794206e-10 -20.5092 4.884796 15.6934 8.210273
2.460551 101.6675 25.0307 -2.150689 4.088119 2.464641 7.107595 -29.52783 5.159985 3.893224e-09 19.09517 -3.082301e-09 -7.179352 -5.56603 -1.434761 -4.305371 14.46196 -17.34289 5.828208e-09 17.13807 -4.170116e-09 -1.620826 -18.61443 14.51785 -0.826922 -2.3396 2.707098 3.428064 7.872406 -8.588694 0.9695587 20.70275 7.822745 3.587632 -26.1704 9.493925 5.637339 -16.71762 11.27245 87.84691 34.92855 -22.47867 1.041323e-09 -7.522711e-11 12.02736 -9.261857 10.01412 5.946566 6.760604 -21.0343 -0.6028332 -92.27969 26.74306 20.18804 2.251544e-10 -4.931526e-11 -19.51974 4.742539 15.28396 8.534843
2.684465 102.0483 30.02654 -2.569333 3.776629 2.791092 7.503938 -27.58838 5.030112 3.950912e-09 20.32358 -3.105298e-09 -7.977943 -5.847689 -1.815694 -3.744296 13.26596 -16.14705 6.488671e-09 23.81055 -2.944415e-09 -2.98747 -16.09659 12.72091 -0.3083555 -2.251616 2.643185 3.43852 7.935495 -8.6046 0.9164307 20.7221 7.525254 3.326754 -25.8799 9.184685 5.69613 -16.3399 11.31235 88.0304 35.03058 -22.36432 1.083386e-09 2.602657e-10 11.60055 -9.084443 10.60801 5.955712 6.064216 -20.91264 -0.5653041 -91.98044 26.49417 20.4619 9.966877e-11 1.102118e-10 -18.52563 4.638195 14.94461 8.793069
2.900193 102.843 35.30316 -2.771209 3.099645 2.97784 7.835881 -24.35911 4.9158 3.48502e-09 21.00668 -2.790561e-09 -8.657075 -6.804783 -2.136639 -3.246872 10.5806 -14.74404 5.962705e-09 31.99673 -1.381139e-09 -4.069555 -13.29152 11.53394 0.1306995 -2.048261 2.882487 3.351043 8.152364 -8.474432 0.863447 20.93235 7.201207 3.107651 -25.44414 8.787256 5.726193 -16.11493 11.48166 88.08724 35.11687 -22.01227 9.293142e-10 4.521708e-10 11.34268 -9.218239 11.13725 5.987499 5.372943 -20.85287 -0.5778477 -91.90528 26.22403 20.78041 3.74911e-11 1.873427e-10 -17.67991 4.530801 14.61568 9.013019
